name ../IE_Laxity/ie_75.mot
datacolumns  10
datarows 23
range   7.00000000 7.22000000
cursor 1.0 1.0 0.0
keys m_key
wrap
enforce_loops no
enforce_constraints no
calc_derivatives -1.000000
event_color 0.000000 0.000000 0.000000
endheader
            time femur_r_force_vx femur_r_force_vy femur_r_force_vz femur_r_force_px femur_r_force_py femur_r_force_pz femur_r_torque_x femur_r_torque_y femur_r_torque_z 
      7.00000000       0.00000000       0.00000000       0.00000000      -0.06780825      -0.46560544       0.00000000      -4.33974175      -1.16283030       0.00000000 
      7.01000000       0.00000000       0.00000000       0.00000000      -0.06780825      -0.46560544       0.00000000      -4.34698871      -1.16477211       0.00000000 
      7.02000000       0.00000000       0.00000000       0.00000000      -0.06780825      -0.46560544       0.00000000      -4.35418762      -1.16670106       0.00000000 
      7.03000000       0.00000000       0.00000000       0.00000000      -0.06780825      -0.46560544       0.00000000      -4.36133831      -1.16861708       0.00000000 
      7.04000000       0.00000000       0.00000000       0.00000000      -0.06780825      -0.46560544       0.00000000      -4.36844059      -1.17052013       0.00000000 
      7.05000000       0.00000000       0.00000000       0.00000000      -0.06780825      -0.46560544       0.00000000      -4.37549429      -1.17241016       0.00000000 
      7.06000000       0.00000000       0.00000000       0.00000000      -0.06780825      -0.46560544       0.00000000      -4.38249923      -1.17428713       0.00000000 
      7.07000000       0.00000000       0.00000000       0.00000000      -0.06780825      -0.46560544       0.00000000      -4.38945525      -1.17615099       0.00000000 
      7.08000000       0.00000000       0.00000000       0.00000000      -0.06780825      -0.46560544       0.00000000      -4.39636216      -1.17800169       0.00000000 
      7.09000000       0.00000000       0.00000000       0.00000000      -0.06780825      -0.46560544       0.00000000      -4.40321980      -1.17983919       0.00000000 
      7.10000000       0.00000000       0.00000000       0.00000000      -0.06780825      -0.46560544       0.00000000      -4.41002799      -1.18166344       0.00000000 
      7.11000000       0.00000000       0.00000000       0.00000000      -0.06780825      -0.46560544       0.00000000      -4.41678657      -1.18347439       0.00000000 
      7.12000000       0.00000000       0.00000000       0.00000000      -0.06780825      -0.46560544       0.00000000      -4.42349537      -1.18527201       0.00000000 
      7.13000000       0.00000000       0.00000000       0.00000000      -0.06780825      -0.46560544       0.00000000      -4.43015421      -1.18705624       0.00000000 
      7.14000000       0.00000000       0.00000000       0.00000000      -0.06780825      -0.46560544       0.00000000      -4.43676295      -1.18882705       0.00000000 
      7.15000000       0.00000000       0.00000000       0.00000000      -0.06780825      -0.46560544       0.00000000      -4.44332140      -1.19058438       0.00000000 
      7.16000000       0.00000000       0.00000000       0.00000000      -0.06780825      -0.46560544       0.00000000      -4.44982941      -1.19232820       0.00000000 
      7.17000000       0.00000000       0.00000000       0.00000000      -0.06780825      -0.46560544       0.00000000      -4.45628682      -1.19405845       0.00000000 
      7.18000000       0.00000000       0.00000000       0.00000000      -0.06780825      -0.46560544       0.00000000      -4.46269346      -1.19577511       0.00000000 
      7.19000000       0.00000000       0.00000000       0.00000000      -0.06780825      -0.46560544       0.00000000      -4.46904918      -1.19747812       0.00000000 
      7.20000000       0.00000000       0.00000000       0.00000000      -0.06780825      -0.46560544       0.00000000      -4.47535382      -1.19916744       0.00000000 
      7.21000000       0.00000000       0.00000000       0.00000000      -0.06780825      -0.46560544       0.00000000      -4.48160721      -1.20084303       0.00000000 
      7.22000000       0.00000000       0.00000000       0.00000000      -0.06780825      -0.46560544       0.00000000      -4.48780922      -1.20250486       0.00000000 
